<svg id="图层_1" data-name="图层 1" xmlns="http://www.w3.org/2000/svg" xmlns:xlink="http://www.w3.org/1999/xlink" viewBox="0 0 907.09 510.24"><defs><style>.cls-1{fill:url(#未命名的渐变_7);}.cls-2{fill:url(#未命名的渐变_7-2);}.cls-3{fill:url(#未命名的渐变_7-3);}.cls-4{fill:url(#未命名的渐变_7-4);}.cls-5{fill:url(#未命名的渐变_7-5);}</style><linearGradient id="未命名的渐变_7" x1="241.88" y1="268.52" x2="566.05" y2="37.11" gradientUnits="userSpaceOnUse"><stop offset="0" stop-color="#5abda7"/><stop offset="0.49" stop-color="#5b9dcc"/><stop offset="1" stop-color="#7d78b7"/></linearGradient><linearGradient id="未命名的渐变_7-2" x1="274.42" y1="314.11" x2="598.59" y2="82.7" xlink:href="#未命名的渐变_7"/><linearGradient id="未命名的渐变_7-3" x1="306.97" y1="359.7" x2="631.13" y2="128.29" xlink:href="#未命名的渐变_7"/><linearGradient id="未命名的渐变_7-4" x1="339.52" y1="405.31" x2="663.69" y2="173.9" xlink:href="#未命名的渐变_7"/><linearGradient id="未命名的渐变_7-5" x1="372.07" y1="450.89" x2="696.23" y2="219.49" xlink:href="#未命名的渐变_7"/></defs><polygon class="cls-1" points="399.25 132.31 399.25 132.31 313.47 192.37 313.47 241.29 313.47 241.29 399.25 181.23 399.25 132.31"/><polygon class="cls-2" points="410.39 241.59 496.64 181.17 496.64 132.31 410.39 192.66 399.25 200.47 313.47 260.54 313.47 309.46 313.47 309.46 399.25 249.4 410.39 241.59"/><polygon class="cls-3" points="507.77 192.67 496.64 200.48 410.39 260.84 399.25 268.65 313.48 328.71 313.48 377.64 399.25 317.58 410.39 309.76 496.64 249.35 507.77 241.54 593.61 181.41 593.61 132.55 507.77 192.67"/><polygon class="cls-4" points="507.77 260.84 496.64 268.65 410.39 329.06 410.39 377.93 496.64 317.52 507.77 309.7 593.61 249.58 593.61 200.72 507.77 260.84"/><polygon class="cls-5" points="507.77 329.01 507.77 377.87 593.61 317.75 593.61 268.88 507.77 329.01"/></svg> 